<svg width="15" height="18" viewBox="0 0 15 18" fill="none" xmlns="http://www.w3.org/2000/svg">
<path d="M5.75626 11.9052C5.28343 14.3833 4.70641 16.759 2.99651 18C2.46828 14.2545 3.77125 11.4415 4.37638 8.45503C3.34454 6.71871 4.50031 3.22418 6.67605 4.08504C9.35319 5.14412 4.35793 10.5411 7.71097 11.2152C11.2125 11.9188 12.6421 5.13972 10.4712 2.9354C7.33392 -0.24796 1.33928 2.86291 2.07626 7.42054C2.25555 8.53457 3.40653 8.87252 2.53637 10.4106C0.528503 9.96499 -0.0704637 8.38162 0.00643259 6.27047C0.130777 2.81461 3.11121 0.395391 6.10121 0.0605416C9.88227 -0.362652 13.4309 1.44834 13.9209 5.0053C14.4728 9.02018 12.2145 13.3681 8.17108 13.0552C7.07505 12.97 6.61494 12.4268 5.75626 11.9052Z" fill="#888C92"/>
</svg>
