<svg width="18" height="16" viewBox="0 0 18 16" fill="none" xmlns="http://www.w3.org/2000/svg">
<path fill-rule="evenodd" clip-rule="evenodd" d="M5.661 15.1999C15.1578 15.1972 16.1685 9.65907 16.1685 4.8547C16.1685 4.69697 16.1685 4.54044 16.1577 4.38448C16.8804 3.87055 17.5041 3.23244 18 2.50231C17.3268 2.79649 16.6113 2.98941 15.8796 3.07447C16.65 2.61991 17.2269 1.90577 17.5032 1.0631C16.7778 1.48665 15.9849 1.78557 15.1578 1.94596C13.7592 0.482135 11.4201 0.411212 9.9324 1.78819C8.9739 2.67605 8.5662 3.99984 8.8641 5.26251C5.895 5.11542 3.1284 3.73492 1.2528 1.46388C0.2727 3.12529 0.774 5.24991 2.3967 6.31676C1.809 6.29992 1.2339 6.14414 0.72 5.86236V5.90851C0.7209 7.63905 1.9602 9.12912 3.6828 9.47203C3.1392 9.61824 2.5686 9.63944 2.016 9.53399C2.4993 11.0155 3.8862 12.0303 5.4657 12.0595C4.158 13.0714 2.5425 13.6209 0.8793 13.6192C0.5859 13.6183 0.2925 13.6014 0 13.5669C1.6893 14.6337 3.654 15.1999 5.661 15.1972" fill="#888C92"/>
</svg>
